<svg xmlns="http://www.w3.org/2000/svg" xmlns:xlink="http://www.w3.org/1999/xlink" width="78" height="78" viewBox="0 0 78 78">
  <defs>
    <filter id="Rectangle_3346" x="0" y="0" width="78" height="78" filterUnits="userSpaceOnUse">
      <feOffset dy="3" input="SourceAlpha"/>
      <feGaussianBlur stdDeviation="3" result="blur"/>
      <feFlood flood-opacity="0.161"/>
      <feComposite operator="in" in2="blur"/>
      <feComposite in="SourceGraphic"/>
    </filter>
  </defs>
  <g id="book_appointment" transform="translate(-3064 1636)">
    <g transform="matrix(1, 0, 0, 1, 3064, -1636)" filter="url(#Rectangle_3346)">
      <rect id="Rectangle_3346-2" data-name="Rectangle 3346" width="60" height="60" rx="10" transform="translate(9 6)" fill="#464a8c" opacity="0.1"/>
    </g>
    <g id="Group_1427" data-name="Group 1427" transform="translate(829.272 -2067.409)">
      <path id="Path_450" data-name="Path 450" d="M2255.728,501.7V481.932h36v12.5c-.084-.1-.175-.188-.25-.291a8.47,8.47,0,0,0-8.739-3.19,8.053,8.053,0,0,0-5.3,11.911c.053.092.1.189.164.318h-.264q-9.839,0-19.678,0a2.065,2.065,0,0,1-.474-.057A2.026,2.026,0,0,1,2255.728,501.7Zm6.44-12.264c.4,0,.8.007,1.2,0a1.287,1.287,0,0,0,1.356-1.293q.021-.9,0-1.793a1.274,1.274,0,0,0-1.319-1.287c-.828-.014-1.657-.013-2.485,0a1.275,1.275,0,0,0-1.336,1.309q-.015.877,0,1.754a1.288,1.288,0,0,0,1.339,1.31C2261.339,489.441,2261.753,489.433,2262.167,489.433Zm7.7,0c.414,0,.829.009,1.242,0a1.279,1.279,0,0,0,1.325-1.283c.015-.6.013-1.2,0-1.793a1.282,1.282,0,0,0-1.35-1.3q-1.223-.016-2.446,0a1.276,1.276,0,0,0-1.344,1.3c-.011.584-.01,1.169,0,1.753a1.293,1.293,0,0,0,1.37,1.32C2269.071,489.439,2269.471,489.433,2269.872,489.433Zm7.738-4.377c-.4,0-.8,0-1.2,0a1.29,1.29,0,0,0-1.394,1.334q-.012.857,0,1.715a1.289,1.289,0,0,0,1.363,1.326q1.2.015,2.405,0a1.288,1.288,0,0,0,1.374-1.315q.016-.876,0-1.754a1.286,1.286,0,0,0-1.343-1.305C2278.412,485.049,2278.01,485.056,2277.61,485.056Zm7.7,4.378c.388,0,.775,0,1.163,0a1.3,1.3,0,0,0,1.393-1.336q.013-.857,0-1.715a1.287,1.287,0,0,0-1.364-1.324q-1.2-.014-2.405,0a1.282,1.282,0,0,0-1.372,1.314q-.015.876,0,1.753a1.288,1.288,0,0,0,1.343,1.306C2284.485,489.441,2284.9,489.433,2285.314,489.433Zm-15.446,6.873c-.415,0-.829-.009-1.243,0a1.275,1.275,0,0,0-1.325,1.281c-.014.611-.016,1.221,0,1.832a1.27,1.27,0,0,0,1.307,1.258q1.262.024,2.525,0a1.268,1.268,0,0,0,1.3-1.261c.018-.61.016-1.221,0-1.832a1.28,1.28,0,0,0-1.328-1.279C2270.7,496.3,2270.282,496.306,2269.868,496.306Zm-7.71,4.376c.414,0,.829.009,1.243,0a1.28,1.28,0,0,0,1.325-1.283c.015-.6.013-1.2,0-1.793a1.282,1.282,0,0,0-1.35-1.3q-1.222-.016-2.445,0a1.276,1.276,0,0,0-1.345,1.3c-.011.585-.01,1.169,0,1.754a1.292,1.292,0,0,0,1.37,1.319C2261.356,500.689,2261.758,500.683,2262.158,500.682Zm0-5.625c.4,0,.8.006,1.2,0a1.291,1.291,0,0,0,1.362-1.327q.014-.857,0-1.715a1.288,1.288,0,0,0-1.356-1.332q-1.222-.015-2.445,0a1.276,1.276,0,0,0-1.341,1.305q-.016.876,0,1.754a1.292,1.292,0,0,0,1.375,1.315C2261.361,495.063,2261.762,495.058,2262.163,495.058Zm7.7-4.377c-.415,0-.829-.009-1.243,0a1.274,1.274,0,0,0-1.324,1.282c-.014.6-.012,1.2,0,1.792a1.275,1.275,0,0,0,1.31,1.3q1.262.024,2.525,0a1.268,1.268,0,0,0,1.3-1.261c.018-.61.016-1.221,0-1.831a1.281,1.281,0,0,0-1.33-1.278C2270.7,490.673,2270.282,490.681,2269.868,490.681Zm6.443,1.252c.852,0,1.665.007,2.479,0a.628.628,0,1,0,.025-1.246c-.843-.011-1.686-.019-2.529,0a1.246,1.246,0,0,0-1.266,1.216c-.024.649-.025,1.3,0,1.951a1.266,1.266,0,0,0,1.125,1.192.655.655,0,0,0,.754-.44.573.573,0,0,0-.355-.734c-.079-.039-.163-.067-.234-.1Z" transform="translate(0 -20.273)" fill="#464a8c"/>
      <path id="Path_451" data-name="Path 451" d="M2255.728,466.5v-4.766a1.035,1.035,0,0,0,.075-.136,1.906,1.906,0,0,1,1.974-1.347h3.094c0,.46-.01.862,0,1.264a2.553,2.553,0,0,0,2.409,2.478,2.52,2.52,0,0,0,2.672-2.094,14.008,14.008,0,0,0,.09-1.62h5.113c0,.431-.01.834,0,1.236a2.553,2.553,0,0,0,2.41,2.478,2.52,2.52,0,0,0,2.671-2.094,14.106,14.106,0,0,0,.09-1.619h5.057a12.485,12.485,0,0,0,.187,1.924,2.511,2.511,0,0,0,2.682,1.782,2.543,2.543,0,0,0,2.325-2.433c.018-.424,0-.849,0-1.3,1.134,0,2.216,0,3.3,0a1.731,1.731,0,0,1,.394.055,2.031,2.031,0,0,1,1.453,1.425V466.5Z" transform="translate(0 -7.093)" fill="#464a8c"/>
      <path id="Path_452" data-name="Path 452" d="M2324.785,524.588h-1.562a1.737,1.737,0,0,0-.257-.078,6.88,6.88,0,1,1,7.633-8.746c.115.383.188.779.281,1.168v1.563a1.352,1.352,0,0,0-.073.215,6.677,6.677,0,0,1-3.954,5.243A15.4,15.4,0,0,1,2324.785,524.588Zm-2.029-4.649c-.109-.1-.206-.183-.3-.273-.617-.615-1.217-1.249-1.86-1.836a.912.912,0,0,0-.687-.185.62.62,0,0,0-.386.456.969.969,0,0,0,.27.638c.763.8,1.554,1.573,2.336,2.354.492.49.75.492,1.24,0q2.47-2.468,4.939-4.939a1.83,1.83,0,0,0,.212-.228.583.583,0,0,0-.044-.814.577.577,0,0,0-.812-.049,2.4,2.4,0,0,0-.284.266l-4.332,4.331C2322.962,519.753,2322.866,519.837,2322.757,519.939Z" transform="translate(-39.151 -39.179)" fill="#464a8c"/>
      <path id="Path_453" data-name="Path 453" d="M2333.156,449.409a1.458,1.458,0,0,1,.947,1.568c-.04,1.117-.008,2.236-.011,3.355a1.25,1.25,0,1,1-2.5,0c0-1.118.029-2.238-.011-3.355a1.446,1.446,0,0,1,.946-1.566Z" transform="translate(-48.807)" fill="#464a8c"/>
      <path id="Path_454" data-name="Path 454" d="M2304.247,449.409a1.458,1.458,0,0,1,.947,1.568c-.04,1.117-.008,2.236-.011,3.355a1.25,1.25,0,1,1-2.5,0c0-1.118.029-2.238-.011-3.355a1.446,1.446,0,0,1,.947-1.566Z" transform="translate(-30.206)" fill="#464a8c"/>
      <path id="Path_455" data-name="Path 455" d="M2275.338,449.409a1.457,1.457,0,0,1,.947,1.568c-.04,1.117-.008,2.236-.011,3.355a1.25,1.25,0,1,1-2.5,0c0-1.118.029-2.238-.011-3.355a1.446,1.446,0,0,1,.946-1.566Z" transform="translate(-11.605)" fill="#464a8c"/>
      <path id="Path_456" data-name="Path 456" d="M2272.726,494.663v1.824h-2.448v-1.824Z" transform="translate(-9.516 -29.128)" fill="#464a8c"/>
      <path id="Path_457" data-name="Path 457" d="M2291.893,496.489V494.67h2.462v1.819Z" transform="translate(-23.271 -29.133)" fill="#464a8c"/>
      <path id="Path_458" data-name="Path 458" d="M2313.629,494.635h2.449v1.824h-2.449Z" transform="translate(-37.257 -29.11)" fill="#464a8c"/>
      <path id="Path_459" data-name="Path 459" d="M2337.754,494.674v1.817h-2.461v-1.817Z" transform="translate(-51.042 -29.135)" fill="#464a8c"/>
      <path id="Path_460" data-name="Path 460" d="M2294.387,527.192v1.82h-2.462v-1.82Z" transform="translate(-23.291 -50.066)" fill="#464a8c"/>
      <path id="Path_461" data-name="Path 461" d="M2272.7,529h-2.444v-1.837h2.444Z" transform="translate(-9.501 -50.047)" fill="#464a8c"/>
      <path id="Path_462" data-name="Path 462" d="M2270.232,512.73v-1.82h2.462v1.82Z" transform="translate(-9.487 -39.586)" fill="#464a8c"/>
      <path id="Path_463" data-name="Path 463" d="M2291.922,512.749v-1.822h2.453v1.822Z" transform="translate(-23.289 -39.597)" fill="#464a8c"/>
    </g>
  </g>
</svg>
