<svg xmlns="http://www.w3.org/2000/svg" width="36" height="36" viewBox="0 0 36 36">
  <g id="download" transform="translate(-1171 -199)">
    <g id="Component_57_9" data-name="Component 57 – 9" transform="translate(1171 199)">
      <rect id="Rectangle_3133" data-name="Rectangle 3133" width="36" height="36" rx="5" fill="#03a64a"/>
    </g>
    <g id="Group_975" data-name="Group 975" transform="translate(1731.242 -193.836)">
      <path id="Path_5828" data-name="Path 5828" d="M-539.115,398.836c.065.1.18.051.27.094a1.139,1.139,0,0,1,.672,1.133c0,1.24,0,2.479,0,3.719q0,4.8,0,9.593a.559.559,0,0,0,.022.278c.1-.027.147-.114.21-.177q2.19-2.2,4.376-4.406a1.083,1.083,0,0,1,1.855.463,1.045,1.045,0,0,1-.185.943,2.648,2.648,0,0,1-.223.245L-538.347,417a1.123,1.123,0,0,1-1.842,0l-6.282-6.33a1.1,1.1,0,0,1-.287-1.324,1.08,1.08,0,0,1,1.75-.307c.44.427.866.869,1.3,1.3q1.567,1.577,3.134,3.154c.056.057.1.138.192.157a.575.575,0,0,0,.021-.277c0-4.326.011-8.653-.009-12.979,0-.713.143-1.272.848-1.559Z" transform="translate(-2.972)" fill="#fff"/>
      <path id="Path_5829" data-name="Path 5829" d="M-554.242,427.224c.083-.027.065-.113.089-.169a1.1,1.1,0,0,1,1.19-.679,1.084,1.084,0,0,1,.917,1.095c0,1.376.005,2.753,0,4.13,0,.2.055.247.25.247q9.561-.008,19.122,0c.2,0,.251-.042.25-.247-.01-1.36-.006-2.719,0-4.079a1.1,1.1,0,0,1,1.094-1.163,1.115,1.115,0,0,1,1.094,1.147q.007,2.693,0,5.387a1.119,1.119,0,0,1-1.218,1.151H-546.4c-2.111,0-4.221-.018-6.331.01a1.374,1.374,0,0,1-1.511-.877v-.051c.083-.054.05-.138.05-.21q0-2.715,0-5.429c0-.072.033-.156-.05-.211Z" transform="translate(0 -11.217)" fill="#fff"/>
    </g>
  </g>
</svg>
