<svg xmlns="http://www.w3.org/2000/svg" xmlns:xlink="http://www.w3.org/1999/xlink" width="78" height="78" viewBox="0 0 78 78">
  <defs>
    <filter id="Rectangle_3347" x="0" y="0" width="78" height="78" filterUnits="userSpaceOnUse">
      <feOffset dy="3" input="SourceAlpha"/>
      <feGaussianBlur stdDeviation="3" result="blur"/>
      <feFlood flood-opacity="0.161"/>
      <feComposite operator="in" in2="blur"/>
      <feComposite in="SourceGraphic"/>
    </filter>
  </defs>
  <g id="get_information" transform="translate(-2784 1671)">
    <g transform="matrix(1, 0, 0, 1, 2784, -1671)" filter="url(#Rectangle_3347)">
      <rect id="Rectangle_3347-2" data-name="Rectangle 3347" width="60" height="60" rx="10" transform="translate(9 6)" fill="#464a8c" opacity="0.1"/>
    </g>
    <path id="Path_7847" data-name="Path 7847" d="M2496.038,436.489a18,18,0,1,0,18,18A18,18,0,0,0,2496.038,436.489Zm5.4,30.244a.393.393,0,0,1-.216.241,29.848,29.848,0,0,1-3.746,1.229,5.34,5.34,0,0,1-4.23-.691,3.4,3.4,0,0,1-1.458-3.2,19.84,19.84,0,0,1,.9-4.291c.419-1.51.828-3.022,1.2-4.543a5.507,5.507,0,0,0,.144-1.438c-.018-1.042-.479-1.53-1.517-1.53a12.233,12.233,0,0,0-1.9.25,5.074,5.074,0,0,0-.677.209c.129-.54.237-1.015.363-1.483.016-.063.126-.117.205-.146a16.713,16.713,0,0,1,4.277-1.289,5.2,5.2,0,0,1,3.665.774,3.377,3.377,0,0,1,1.393,3.058c-.052,2.176-.905,4.167-1.413,6.239-.272,1.109-.553,2.216-.776,3.334a3.539,3.539,0,0,0,.01,1.262,1.186,1.186,0,0,0,1.152,1.078,4.645,4.645,0,0,0,2.214-.189c.22-.067.439-.144.74-.243C2501.647,465.885,2501.557,466.313,2501.438,466.734Zm-2.216-19.706c-.175.013-.353.023-.547.034a3.478,3.478,0,0,1-3.208-2.1,3.149,3.149,0,0,1,1.759-4.01,3.507,3.507,0,0,1,4.779,2.009A3.224,3.224,0,0,1,2499.221,447.028Z" transform="translate(326.962 -2089.489)" fill="#464a8c"/>
  </g>
</svg>
