<svg xmlns="http://www.w3.org/2000/svg" xmlns:xlink="http://www.w3.org/1999/xlink" width="78" height="78" viewBox="0 0 78 78">
  <defs>
    <filter id="Rectangle_3348" x="0" y="0" width="78" height="78" filterUnits="userSpaceOnUse">
      <feOffset dy="3" input="SourceAlpha"/>
      <feGaussianBlur stdDeviation="3" result="blur"/>
      <feFlood flood-opacity="0.161"/>
      <feComposite operator="in" in2="blur"/>
      <feComposite in="SourceGraphic"/>
    </filter>
  </defs>
  <g id="get_my_uin" transform="translate(-2882 1658)">
    <g transform="matrix(1, 0, 0, 1, 2882, -1658)" filter="url(#Rectangle_3348)">
      <rect id="Rectangle_3348-2" data-name="Rectangle 3348" width="60" height="60" rx="10" transform="translate(9 6)" fill="#464a8c" opacity="0.1"/>
    </g>
    <g id="Group_1430" data-name="Group 1430" transform="translate(-1345.658 -1910.165)">
      <path id="Path_464" data-name="Path 464" d="M4273.9,297.259c-3.06-4.52-6.188-8.664-8.792-13.106-3.518-6,1.194-12.882,7.27-13.861,7.286-1.174,13.607,5.985,10.9,12.737a47.094,47.094,0,0,1-4.618,7.955C4277.314,293.034,4275.7,294.909,4273.9,297.259Zm5.09-17.858a5.063,5.063,0,0,0-10.125.059,5.063,5.063,0,0,0,10.125-.059Z" transform="translate(-7.287)" fill="#464a8c"/>
      <path id="Path_465" data-name="Path 465" d="M4261.534,368.307a37.545,37.545,0,0,0-3.6,2.517c-2.588,2.342-2.6,5.521-.138,7.971,4.144,4.122,13.358,4.185,17.578.12,2.634-2.536,2.575-5.94-.214-8.307a30.386,30.386,0,0,0-2.854-1.927c.21-.968.76-1.054,1.637-.555,2.6,1.481,4.623,3.414,4.711,6.562.087,3.094-1.7,5.237-4.308,6.613a15.34,15.34,0,0,1-16.082-.435c-2.487-1.529-3.939-3.784-3.542-6.832.4-3.069,2.5-4.828,5.117-6.091C4260.185,367.777,4260.788,368.132,4261.534,368.307Z" transform="translate(0 -77.201)" fill="#464a8c"/>
      <path id="Path_466" data-name="Path 466" d="M4289.832,380.315l.741-.906a2.12,2.12,0,0,1,.432.216c2.849,2.488,2.519,6.086-.821,7.9a7.887,7.887,0,0,1-8.61-.357,4.5,4.5,0,0,1-.585-7.281c.794-.709.794-.709,1.7.445a6.978,6.978,0,0,0-.945.731,3.086,3.086,0,0,0,.5,4.932,6.487,6.487,0,0,0,5.965.947C4291.227,386.039,4293.025,383.029,4289.832,380.315Z" transform="translate(-19.509 -86.323)" fill="#464a8c"/>
    </g>
  </g>
</svg>
