<svg xmlns="http://www.w3.org/2000/svg" width="30" height="30" viewBox="0 0 30 30">
  <g id="Group_130" data-name="Group 130" transform="translate(-545.576 -486.576)">
    <circle id="Ellipse_3" data-name="Ellipse 3" cx="15" cy="15" r="15" transform="translate(545.576 486.576)" fill="#ceb13d"/>
    <path id="question_mark_FILL0_wght400_GRAD0_opsz48" d="M16.374,14.687a4.63,4.63,0,0,1,.281-1.789,4.154,4.154,0,0,1,1-1.226,7.249,7.249,0,0,0,1.1-1.2,2.042,2.042,0,0,0,.383-1.184,1.733,1.733,0,0,0-.511-1.278A1.934,1.934,0,0,0,17.192,7.5a1.789,1.789,0,0,0-1.363.5,3.379,3.379,0,0,0-.7,1.048L13.7,8.419a3.89,3.89,0,0,1,1.269-1.712A3.473,3.473,0,0,1,17.192,6a3.493,3.493,0,0,1,2.623.945,3.144,3.144,0,0,1,.92,2.274,3.136,3.136,0,0,1-.349,1.482,5.628,5.628,0,0,1-1.116,1.4,4.359,4.359,0,0,0-1,1.226,4.168,4.168,0,0,0-.187,1.363Zm.818,4.258a1.192,1.192,0,1,1,.843-.349A1.149,1.149,0,0,1,17.192,18.946Z" transform="translate(543.146 489.103)" fill="#fff" stroke="#fff" stroke-width="1"/>
  </g>
</svg>
