<svg xmlns="http://www.w3.org/2000/svg" width="30" height="32" viewBox="0 0 30 32">
  <path id="Path_5853" data-name="Path 5853" d="M-971.763,832.837a5.692,5.692,0,0,0-4.448-4.157,5.811,5.811,0,0,0-5.923,1.962c-.2.221-.3.234-.541.076q-3.436-2.247-6.892-4.465c-.2-.129-.273-.229-.19-.483a5.076,5.076,0,0,0,0-3.207.328.328,0,0,1,.16-.463q3.5-2.249,6.979-4.521c.195-.127.282-.113.437.062a5.82,5.82,0,0,0,5.856,1.989,5.629,5.629,0,0,0,4.55-4.3,5.776,5.776,0,0,0-5.108-7.1c-.049,0-.09-.013-.1-.068h-1.262a2.772,2.772,0,0,1-.79.193,5.755,5.755,0,0,0-4.464,5.928.516.516,0,0,1-.276.548q-3.734,2.4-7.448,4.821a.393.393,0,0,1-.561-.018,6.049,6.049,0,0,0-9.6,3.31c-.032.157-.01.335-.135.469v1.5c.19.489.254,1.013.468,1.5a6.065,6.065,0,0,0,9.315,2.24.317.317,0,0,1,.446-.02q3.788,2.467,7.59,4.913a.385.385,0,0,1,.2.417,5.819,5.819,0,0,0,5.217,6.133c.048.006.09.017.105.068h1.192a4.024,4.024,0,0,1,.858-.184,5.845,5.845,0,0,0,4.538-5.128c.006-.055,0-.116.072-.135v-.749C-971.6,833.593-971.651,833.206-971.763,832.837Zm-5.7-21.74a2.94,2.94,0,0,1,2.9,2.944,2.923,2.923,0,0,1-3.122,2.846,2.926,2.926,0,0,1-2.83-2.9A2.951,2.951,0,0,1-977.466,811.1Zm-18.071,15.962a2.927,2.927,0,0,1-2.93-2.906,2.937,2.937,0,0,1,2.993-2.882,2.934,2.934,0,0,1,2.965,2.909A2.933,2.933,0,0,1-995.536,827.059Zm17.932,10.179a2.948,2.948,0,0,1-2.917-2.928,2.928,2.928,0,0,1,3.109-2.864,2.925,2.925,0,0,1,2.847,2.914A2.953,2.953,0,0,1-977.6,837.237Z" transform="translate(1001.515 -808.167)" fill="#464a8c"/>
</svg>
