<svg id="recent_actors_black_24dp" xmlns="http://www.w3.org/2000/svg" width="32" height="32" viewBox="0 0 32 32">
  <path id="Path_2012" data-name="Path 2012" d="M0,0H32V32H0Z" fill="none"/>
  <path id="Path_2013" data-name="Path 2013" d="M27.667,5h2.667V23.667H27.667ZM22.333,5H25V23.667H22.333Zm-4,0h-16A1.337,1.337,0,0,0,1,6.333v16a1.337,1.337,0,0,0,1.333,1.333h16a1.337,1.337,0,0,0,1.333-1.333v-16A1.337,1.337,0,0,0,18.333,5ZM17,21H3.667V7.667H17Z" transform="translate(0.333 1.667)" fill="#464a8c"/>
  <circle id="Ellipse_2" data-name="Ellipse 2" cx="2.6" cy="2.6" r="2.6" transform="translate(8.067 10.653)" fill="#464a8c"/>
  <path id="Path_2014" data-name="Path 2014" d="M14.483,16c0-1.733-3.453-2.6-5.187-2.6S4.11,14.267,4.11,16v.867H14.483V16Z" transform="translate(1.37 4.467)" fill="#464a8c"/>
</svg>
