<svg xmlns="http://www.w3.org/2000/svg" xmlns:xlink="http://www.w3.org/1999/xlink" width="78" height="78" viewBox="0 0 78 78">
  <defs>
    <filter id="Rectangle_3345" x="0" y="0" width="78" height="78" filterUnits="userSpaceOnUse">
      <feOffset dy="3" input="SourceAlpha"/>
      <feGaussianBlur stdDeviation="3" result="blur"/>
      <feFlood flood-opacity="0.161"/>
      <feComposite operator="in" in2="blur"/>
      <feComposite in="SourceGraphic"/>
    </filter>
  </defs>
  <g id="uin_services" transform="translate(-2061 1365)">
    <g transform="matrix(1, 0, 0, 1, 2061, -1365)" filter="url(#Rectangle_3345)">
      <rect id="Rectangle_3345-2" data-name="Rectangle 3345" width="60" height="60" rx="10" transform="translate(9 6)" fill="#464a8c" opacity="0.1"/>
    </g>
    <g id="Group_1423" data-name="Group 1423" transform="translate(-20.919 -1794.268)">
      <path id="Path_446" data-name="Path 446" d="M2155.918,456.369v24.083c-.025.075-.055.148-.076.225a3.132,3.132,0,0,1-1.974,2.246c-.19.075-.389.127-.583.189h-16.771c.07-.059.137-.122.211-.178a11.408,11.408,0,0,0,4.19-6.126c.191-.677.3-1.379.444-2.1h5.665c.993,0,1.986.009,2.979,0a1.049,1.049,0,1,0,0-2.1c-.093,0-.185,0-.277,0h-8.36c-.163-.756-.278-1.47-.476-2.159s-.476-1.349-.725-2.039h9.558c.1,0,.208,0,.312,0a1.049,1.049,0,0,0,.006-2.1c-.1-.007-.208,0-.312,0q-5.335,0-10.67,0a.637.637,0,0,1-.534-.238,11.957,11.957,0,0,0-.945-.973,10.977,10.977,0,0,0-6.7-2.927c-.65-.049-1.307-.007-1.977-.007-.007-.113-.016-.192-.016-.272,0-3.862-.015-7.723.01-11.585a2.95,2.95,0,0,1,1.69-2.692,7.372,7.372,0,0,1,.932-.352h15.385q0,3.937,0,7.873a1.09,1.09,0,0,0,1.217,1.229Q2152.021,456.371,2155.918,456.369Zm-13.537,5.742h7.1c.185,0,.37.008.554,0a1.049,1.049,0,0,0,.012-2.1c-.069-.005-.138,0-.208,0h-14.856c-.081,0-.162,0-.242,0a1.049,1.049,0,0,0-.012,2.094c.115.011.23,0,.346,0Z" transform="translate(-16.999 0)" fill="#464a8c"/>
      <path id="Path_447" data-name="Path 447" d="M2196.311,455.773h-6.138v-6.137Z" transform="translate(-58.158 -1.59)" fill="#464a8c"/>
      <g id="Group_1" data-name="Group 1" transform="translate(2102.919 464.335)">
        <path id="Path_448" data-name="Path 448" d="M2126.139,518.668a2.695,2.695,0,1,0,2.683,2.711A2.68,2.68,0,0,0,2126.139,518.668Z" transform="translate(-2116.693 -511.924)" fill="#464a8c"/>
        <path id="Path_449" data-name="Path 449" d="M2112.385,498.134a9.466,9.466,0,1,0,9.466,9.466A9.466,9.466,0,0,0,2112.385,498.134Zm6.545,10.312a.537.537,0,0,1-.4.3c-.428.1-.854.21-1.281.31a.2.2,0,0,0-.161.137c-.077.208-.166.411-.257.613a.164.164,0,0,0,.011.175c.2.332.4.666.6,1a.409.409,0,0,1-.07.6q-.489.491-.98.981a.415.415,0,0,1-.6.074c-.33-.2-.661-.394-.989-.595a.163.163,0,0,0-.174-.01c-.221.1-.448.189-.669.291a.23.23,0,0,0-.118.127c-.11.421-.217.843-.312,1.268a.558.558,0,0,1-.311.436h-1.748a.536.536,0,0,1-.3-.4c-.1-.428-.21-.854-.31-1.282a.207.207,0,0,0-.149-.166c-.2-.077-.4-.161-.6-.252a.205.205,0,0,0-.222.01c-.316.2-.636.385-.957.575a.412.412,0,0,1-.586-.074q-.491-.489-.981-.981a.42.42,0,0,1-.07-.608c.191-.319.382-.638.575-.956a.166.166,0,0,0,.012-.176c-.1-.217-.184-.441-.283-.658a.229.229,0,0,0-.127-.117c-.421-.11-.843-.217-1.268-.312a.559.559,0,0,1-.437-.311V506.7a.536.536,0,0,1,.4-.3c.428-.1.854-.21,1.281-.311a.192.192,0,0,0,.16-.137c.064-.181.139-.359.218-.533a.188.188,0,0,0-.013-.2c-.221-.361-.437-.725-.654-1.089a.417.417,0,0,1,.072-.6l.972-.972a.419.419,0,0,1,.616-.073c.349.209.7.416,1.044.628a.176.176,0,0,0,.188.01c.225-.1.452-.2.682-.291a.178.178,0,0,0,.122-.144c.1-.419.211-.836.305-1.257a.56.56,0,0,1,.311-.437h1.748a.536.536,0,0,1,.3.4c.1.428.21.854.31,1.282a.208.208,0,0,0,.148.167c.2.077.4.162.6.252a.186.186,0,0,0,.2-.009c.334-.207.673-.406,1.011-.608a.411.411,0,0,1,.595.076l.972.971a.417.417,0,0,1,.074.616c-.2.334-.4.666-.6,1a.227.227,0,0,0-.014.172c.085.223.179.443.278.66a.212.212,0,0,0,.122.105c.421.109.843.217,1.268.312a.56.56,0,0,1,.437.311Z" transform="translate(-2102.919 -498.134)" fill="#464a8c"/>
      </g>
    </g>
  </g>
</svg>
