<svg xmlns="http://www.w3.org/2000/svg" xmlns:xlink="http://www.w3.org/1999/xlink" width="78" height="78" viewBox="0 0 78 78">
  <defs>
    <filter id="Rectangle_3357" x="0" y="0" width="78" height="78" filterUnits="userSpaceOnUse">
      <feOffset dy="3" input="SourceAlpha"/>
      <feGaussianBlur stdDeviation="3" result="blur"/>
      <feFlood flood-opacity="0.161"/>
      <feComposite operator="in" in2="blur"/>
      <feComposite in="SourceGraphic"/>
    </filter>
  </defs>
  <g id="verify_phone_number" transform="translate(-2520 1813)">
    <g transform="matrix(1, 0, 0, 1, 2520, -1813)" filter="url(#Rectangle_3357)">
      <rect id="Rectangle_3357-2" data-name="Rectangle 3357" width="60" height="60" rx="10" transform="translate(9 6)" fill="#464a8c" opacity="0.1"/>
    </g>
    <g id="Group_1431" data-name="Group 1431" transform="translate(-1920.649 -2098.02)">
      <path id="Path_467" data-name="Path 467" d="M4479.579,303.02h.14a.309.309,0,0,0,.057.082c1.212.881,2.419,1.769,3.646,2.629a1.118,1.118,0,0,0,.689.162q2.115-.19,4.223-.441c.272-.033.363.051.461.276.551,1.264,1.125,2.517,1.673,3.782a1.242,1.242,0,0,0,.692.692c1.276.552,2.542,1.124,3.813,1.69.146.065.288.1.26.339-.166,1.418-.308,2.837-.464,4.256a1.172,1.172,0,0,0,.236.884c.521.692,1.018,1.4,1.531,2.1.365.5.741.986,1.112,1.479v.14a.31.31,0,0,0-.082.057c-.881,1.212-1.77,2.419-2.629,3.645a1.115,1.115,0,0,0-.162.689q.19,2.114.441,4.223c.033.273-.05.363-.274.461-1.265.55-2.518,1.124-3.783,1.673a1.245,1.245,0,0,0-.692.692c-.553,1.276-1.125,2.543-1.69,3.813-.065.147-.1.288-.34.26-1.417-.165-2.837-.307-4.256-.464a1.171,1.171,0,0,0-.884.236c-.692.522-1.4,1.018-2.1,1.531-.5.365-.986.741-1.479,1.112h-.14a1.185,1.185,0,0,0-.143-.144c-1.164-.846-2.323-1.7-3.5-2.526a1.223,1.223,0,0,0-.745-.2q-2.116.183-4.223.439c-.272.033-.363-.051-.461-.275-.55-1.264-1.125-2.518-1.673-3.783a1.243,1.243,0,0,0-.692-.692c-1.276-.552-2.543-1.124-3.814-1.69-.146-.065-.288-.1-.26-.339.165-1.406.3-2.814.46-4.221a1.241,1.241,0,0,0-.254-.948c-.532-.7-1.032-1.42-1.551-2.128-.352-.478-.714-.948-1.071-1.422v-.14a.312.312,0,0,0,.082-.057c.881-1.212,1.77-2.419,2.629-3.646a1.11,1.11,0,0,0,.162-.689q-.19-2.115-.441-4.223c-.033-.272.051-.363.275-.46,1.264-.551,2.518-1.124,3.783-1.673a1.245,1.245,0,0,0,.692-.692c.552-1.276,1.124-2.544,1.69-3.813.065-.147.1-.288.339-.26,1.417.165,2.837.307,4.256.464a1.171,1.171,0,0,0,.884-.236c.691-.521,1.4-1.018,2.1-1.531C4478.6,303.767,4479.086,303.391,4479.579,303.02Zm-3.665,21.138c-1.033-1.04-2-2.022-2.981-3-.428-.43-.731-.428-1.166,0-.508.5-1.017,1-1.518,1.513a.66.66,0,0,0,0,1.09q2.543,2.55,5.093,5.093a.663.663,0,0,0,1.091,0q6.089-6.085,12.173-12.175a.66.66,0,0,0,0-1.089c-.476-.484-.959-.962-1.44-1.442-.544-.543-.777-.544-1.315-.006q-4.82,4.82-9.639,9.641C4476.119,323.887,4476.039,324,4475.914,324.158Z" transform="translate(0 0)" fill="#464a8c"/>
    </g>
  </g>
</svg>
